<?xml version="1.0" standalone="no"?>
<!DOCTYPE svg PUBLIC "-//W3C//DTD SVG 20010904//EN"
 "http://www.w3.org/TR/2001/REC-SVG-20010904/DTD/svg10.dtd">
<svg version="1.0" xmlns="http://www.w3.org/2000/svg"
 width="8192.000000pt" height="8192.000000pt" viewBox="0 0 8192.000000 8192.000000"
 preserveAspectRatio="xMidYMid meet">

<g transform="translate(0.000000,8192.000000) scale(0.100000,-0.100000)"
fill="#000000" stroke="none">
<path d="M30890 54024 c-251 -32 -509 -129 -709 -267 -94 -65 -256 -219 -320
-305 -96 -128 -175 -304 -222 -492 -32 -131 -33 -356 -1 -472 80 -295 281
-555 517 -671 119 -59 207 -81 320 -81 97 -1 199 17 211 35 3 5 -35 9 -88 9
-110 0 -204 23 -323 79 -235 111 -377 303 -436 586 -69 334 72 665 390 913
261 204 497 293 786 293 259 1 511 -76 736 -226 286 -191 535 -564 610 -915
19 -89 23 -136 23 -310 1 -252 -20 -377 -98 -579 -141 -365 -408 -678 -761
-891 -255 -154 -534 -257 -840 -309 -352 -60 -618 -48 -1055 45 -272 58 -371
86 -940 258 -797 242 -1347 335 -1980 336 -347 0 -546 -23 -880 -100 -196 -45
-313 -82 -518 -162 -306 -120 -611 -291 -832 -468 -108 -87 -376 -359 -462
-470 -105 -136 -263 -383 -332 -519 -132 -262 -201 -479 -253 -801 -27 -166
-24 -531 5 -725 45 -297 80 -440 167 -700 140 -417 247 -898 301 -1350 18
-157 21 -545 4 -695 -22 -197 -82 -486 -132 -635 -45 -136 -134 -292 -154
-273 -3 4 0 44 6 90 6 45 15 116 20 156 13 96 13 388 0 510 -57 529 -242 975
-713 1717 -324 509 -383 617 -490 890 -154 396 -187 548 -187 882 0 305 37
507 140 769 153 388 370 718 695 1053 197 204 417 385 677 559 184 123 145
116 -107 -20 -261 -140 -558 -332 -765 -492 -291 -225 -637 -635 -808 -956
-139 -261 -268 -639 -320 -935 -24 -142 -24 -537 1 -685 57 -338 131 -573 285
-905 62 -134 185 -373 262 -510 367 -652 533 -1015 590 -1287 45 -218 55 -500
25 -702 -31 -210 -115 -452 -226 -651 -184 -333 -520 -645 -864 -806 -78 -36
-190 -68 -200 -57 -3 3 8 21 25 39 16 19 61 68 98 109 137 151 192 227 257
358 104 209 178 441 204 647 17 135 18 365 1 365 -5 0 -10 -10 -10 -22 0 -45
-49 -254 -79 -343 -84 -244 -272 -531 -469 -716 -150 -141 -463 -329 -672
-404 -286 -102 -743 -165 -1350 -185 -1090 -35 -1154 -41 -1605 -137 -554
-119 -1027 -367 -1389 -729 -176 -176 -343 -443 -436 -694 -130 -354 -159
-819 -74 -1190 33 -146 113 -369 179 -499 41 -82 61 -101 52 -50 -82 464 -92
738 -37 993 120 553 559 1093 1110 1367 214 106 437 168 785 218 39 5 88 12
110 16 187 26 470 35 1215 35 893 0 1125 9 1533 56 754 87 1457 360 2015 782
656 497 1037 1170 1143 2017 19 151 17 572 -4 722 -47 330 -116 629 -192 821
-20 52 -35 98 -33 103 2 5 29 -38 62 -96 83 -149 94 -141 52 38 -14 56 -34
131 -46 167 -53 161 -200 644 -224 730 -101 378 -110 686 -31 1075 51 248 131
438 274 651 202 302 502 558 855 730 257 125 521 190 874 214 369 24 925 -60
1402 -212 145 -46 506 -185 675 -260 174 -77 614 -295 840 -416 61 -32 163
-87 229 -121 178 -94 368 -196 491 -266 148 -83 538 -294 770 -415 184 -96
305 -159 485 -255 331 -175 552 -274 764 -340 114 -36 120 -37 133 -19 7 10
74 139 149 287 114 226 134 271 122 283 -7 7 -98 49 -203 93 -283 118 -510
222 -695 319 -181 96 -193 101 -395 193 -186 83 -658 325 -1005 514 -266 145
-1028 534 -1206 616 -474 218 -800 338 -1204 442 -447 116 -727 150 -1197 146
-139 -2 -255 0 -259 3 -26 27 389 112 726 149 134 14 647 15 810 0 389 -35
694 -87 1115 -192 162 -40 240 -63 670 -194 917 -281 1389 -344 1913 -255 343
59 603 149 880 307 225 128 426 286 558 440 216 253 418 662 469 953 23 126
31 445 16 592 -33 322 -120 579 -283 842 -121 195 -302 384 -487 508 -111 74
-363 202 -467 237 -250 83 -505 109 -764 75z"/>
<path d="M42700 51545 c-178 -27 -272 -55 -417 -129 -285 -142 -478 -384 -579
-721 -99 -333 31 -731 304 -934 82 -61 234 -134 314 -151 87 -19 236 -8 333
24 84 29 228 107 208 113 -7 3 -55 -9 -107 -26 -249 -80 -420 -39 -619 149
-152 144 -204 256 -214 460 -4 72 -1 143 6 185 34 197 173 402 351 520 184
122 367 175 600 175 246 0 454 -64 667 -208 206 -137 326 -316 398 -593 33
-125 45 -356 26 -491 -64 -451 -361 -850 -926 -1246 -400 -280 -799 -450
-1424 -607 -710 -177 -1291 -233 -1996 -191 -126 8 -234 11 -238 7 -35 -34
444 -113 928 -153 83 -6 301 -12 485 -12 693 0 1165 74 1798 284 375 124 796
331 1027 506 194 146 394 357 562 592 127 178 235 426 277 637 65 327 18 733
-114 996 -83 164 -256 370 -425 506 -218 175 -426 267 -697 308 -119 18 -407
18 -528 0z"/>
<path d="M50295 50693 c-322 -13 -767 -59 -965 -99 -395 -81 -833 -218 -1226
-385 -503 -213 -1146 -588 -1814 -1058 -113 -79 -311 -218 -440 -309 -129 -91
-302 -213 -385 -272 -607 -432 -1097 -743 -1598 -1014 -413 -224 -656 -332
-970 -435 -359 -117 -563 -171 -838 -221 -598 -110 -1084 -157 -1517 -147
-122 2 -224 1 -227 -2 -2 -4 23 -70 56 -146 33 -77 85 -203 116 -280 31 -77
62 -146 69 -154 20 -22 497 6 854 49 349 43 926 153 1259 241 617 163 1446
519 2041 877 385 231 826 518 1115 724 88 62 255 178 370 256 116 79 336 231
490 338 345 241 428 293 830 528 558 326 1034 552 1478 700 611 205 1132 296
1686 296 503 0 799 -47 1352 -214 444 -134 684 -226 1194 -456 88 -40 225
-102 305 -137 80 -36 249 -114 376 -174 232 -108 564 -253 749 -327 56 -22
156 -64 224 -92 248 -104 678 -256 1121 -396 75 -23 187 -52 367 -94 868 -203
1628 -215 2351 -36 382 94 677 205 1007 375 277 143 640 369 622 387 -2 3 -24
-7 -48 -20 -457 -252 -728 -375 -1059 -477 -814 -253 -1665 -265 -2575 -38
-329 82 -552 153 -935 296 -459 172 -962 416 -1865 908 -396 215 -876 446
-1217 583 -160 65 -490 176 -723 243 -414 118 -676 159 -1150 179 -226 9 -314
10 -480 3z"/>
<path d="M15236 50475 c-9 -13 -16 -27 -16 -31 0 -9 -169 -457 -322 -854 -72
-184 -142 -371 -158 -415 -33 -94 -65 -178 -127 -335 -25 -63 -87 -230 -139
-370 -52 -140 -108 -289 -124 -330 -16 -41 -57 -154 -90 -250 -92 -260 -178
-491 -270 -720 -45 -113 -133 -342 -195 -510 -62 -168 -140 -377 -174 -465
-34 -88 -75 -194 -91 -235 -75 -195 -295 -775 -360 -950 -39 -107 -88 -238
-107 -290 -65 -176 -114 -315 -140 -395 -46 -147 -65 -200 -101 -270 -19 -38
-46 -99 -59 -135 -13 -36 -55 -144 -93 -240 -38 -96 -90 -231 -115 -300 -42
-112 -70 -187 -177 -475 -16 -44 -47 -127 -68 -185 -21 -58 -54 -145 -75 -195
-20 -49 -74 -189 -120 -310 -46 -121 -107 -281 -135 -355 -28 -74 -73 -193
-100 -265 -26 -71 -71 -191 -100 -265 -28 -74 -78 -207 -110 -295 -57 -155
-226 -592 -275 -707 -43 -101 -217 -564 -362 -958 -91 -251 -152 -410 -216
-570 -38 -96 -77 -197 -87 -225 -10 -27 -42 -111 -70 -185 -55 -142 -132 -345
-275 -725 -47 -126 -102 -270 -122 -320 -19 -49 -48 -124 -63 -165 -16 -41
-65 -169 -110 -285 -45 -115 -120 -311 -167 -435 -46 -124 -106 -281 -133
-350 -26 -69 -69 -181 -95 -250 -26 -69 -83 -215 -127 -325 -82 -205 -221
-566 -310 -805 -146 -396 -251 -674 -350 -925 -130 -331 -235 -602 -288 -740
-21 -55 -55 -143 -75 -195 -49 -124 -115 -298 -125 -330 -4 -14 -36 -97 -70
-185 -96 -250 -170 -451 -170 -463 0 -5 8 -13 17 -17 22 -8 7656 0 7670 8 6 4
8 316 5 879 -4 736 -2 875 9 883 17 12 1293 4 1306 -8 4 -5 9 -401 11 -880 2
-675 5 -873 15 -879 15 -9 7649 2 7660 11 4 4 -6 41 -23 82 -17 41 -81 202
-141 359 -61 157 -132 341 -159 410 -27 69 -69 179 -94 245 -24 66 -81 215
-126 330 -45 116 -119 311 -165 435 -126 341 -422 1125 -525 1390 -125 320
-202 521 -260 675 -26 72 -112 294 -190 495 -78 201 -170 444 -206 540 -36 96
-78 209 -94 250 -16 41 -56 149 -90 240 -34 91 -85 228 -115 305 -30 77 -97
255 -150 395 -53 140 -137 357 -186 481 -80 203 -146 379 -169 449 -4 14 -49
133 -100 265 -50 132 -125 330 -166 440 -99 264 -195 507 -207 523 -6 8 -37
12 -86 12 -122 0 -675 42 -1046 80 -55 5 -194 19 -310 30 -492 47 -1133 137
-1232 172 -18 7 -35 9 -39 6 -6 -6 87 -275 285 -823 83 -233 138 -386 213
-595 17 -47 52 -143 78 -215 26 -71 73 -200 103 -285 31 -85 70 -193 87 -240
17 -47 47 -130 67 -185 19 -55 64 -179 100 -275 36 -96 94 -254 130 -350 88
-237 126 -342 233 -640 92 -256 270 -739 317 -860 14 -36 45 -121 70 -190 25
-69 80 -219 123 -335 43 -115 92 -248 108 -295 71 -199 297 -825 339 -935 51
-136 166 -441 223 -590 220 -579 289 -770 279 -780 -10 -10 -2251 -17 -2576
-8 l-143 4 0 1414 c0 942 3 1416 10 1420 6 4 86 -38 178 -93 279 -165 398
-232 413 -232 9 0 26 23 39 53 36 81 117 272 160 377 21 52 66 158 99 234 34
77 61 143 61 147 0 4 -46 33 -102 65 -91 50 -346 209 -718 444 -63 40 -160
100 -215 133 -55 32 -111 68 -125 77 -14 10 -156 97 -316 193 -159 96 -309
187 -333 203 -24 16 -231 142 -460 279 l-416 250 -3 455 c-1 250 -6 457 -10
461 -7 7 -632 18 -1187 20 l-330 1 0 -463 0 -462 -85 -50 c-47 -27 -150 -88
-230 -135 -80 -46 -208 -123 -285 -170 -77 -47 -234 -143 -350 -212 -115 -70
-262 -160 -325 -200 -63 -40 -162 -102 -220 -138 -58 -35 -157 -97 -220 -137
-63 -40 -189 -117 -280 -172 -91 -55 -235 -144 -320 -198 -85 -54 -212 -133
-282 -177 -70 -44 -131 -85 -137 -92 -7 -8 5 -42 42 -116 29 -58 66 -134 81
-170 38 -87 215 -443 225 -453 5 -5 88 23 186 63 205 82 264 110 358 163 40
23 72 36 77 31 5 -5 12 -621 16 -1407 6 -1197 5 -1400 -7 -1408 -8 -5 -593 -9
-1366 -9 -1134 0 -1353 2 -1353 14 0 7 15 46 34 87 19 41 61 153 94 249 33 96
89 254 125 350 36 96 81 218 100 270 19 52 91 246 160 430 149 402 223 604
312 850 89 247 131 364 205 560 63 167 108 292 227 630 36 102 73 201 83 220
18 37 56 136 215 565 53 143 124 332 157 420 32 88 66 180 75 205 17 49 93
258 150 410 20 52 71 196 113 320 43 124 105 297 139 385 35 88 90 234 123
325 104 284 129 354 145 395 8 22 36 101 63 175 26 74 103 281 170 460 171
456 185 492 295 800 66 186 119 331 195 535 10 28 51 140 90 250 100 278 257
706 290 790 15 39 64 169 108 290 45 121 108 294 142 385 34 91 92 251 130
355 37 105 97 264 133 355 71 179 167 444 270 745 133 389 313 897 422 1195
48 129 125 341 171 470 76 215 108 312 226 682 22 71 45 131 50 135 18 11 37
-26 74 -147 80 -257 203 -608 376 -1075 16 -44 63 -174 105 -290 41 -115 104
-289 140 -385 36 -96 69 -186 73 -200 14 -44 107 -302 135 -375 15 -38 40
-104 55 -145 15 -41 47 -124 70 -185 69 -181 100 -264 155 -417 10 -26 23 -52
29 -56 6 -5 74 3 161 19 83 16 175 33 205 38 30 5 152 28 270 51 118 22 267
50 330 61 63 11 139 24 168 29 28 6 76 14 105 19 511 93 713 148 947 262 164
80 162 78 143 137 -34 105 -97 283 -133 377 -21 55 -79 206 -128 335 -50 129
-113 298 -142 375 -28 77 -62 167 -75 200 -13 33 -40 105 -60 160 -20 55 -48
129 -62 165 -14 36 -36 94 -48 130 -12 36 -55 151 -95 255 -40 105 -88 231
-107 280 -19 50 -39 101 -43 115 -5 14 -22 61 -38 105 -16 44 -51 136 -77 205
-25 69 -55 148 -65 175 -20 57 -52 140 -140 370 -34 88 -84 221 -111 295 -64
173 -79 212 -128 340 -22 58 -77 202 -121 320 -45 118 -95 248 -111 288 -17
40 -39 103 -50 140 -12 37 -34 99 -49 137 -42 105 -84 219 -166 450 -145 412
-236 655 -260 696 -16 27 -27 34 -54 36 -19 1 -27 -1 -17 -4 9 -2 26 -23 37
-46 25 -50 25 -52 0 -27 -31 31 -45 17 -45 -48 0 -56 1 -57 27 -54 22 2 27 -2
33 -27 3 -16 13 -32 21 -35 18 -7 18 -32 0 -39 -17 -7 -27 -67 -11 -67 6 0 16
5 23 12 16 16 42 -7 35 -31 -6 -22 22 -52 42 -45 10 4 15 0 15 -15 0 -13 -6
-21 -16 -21 -13 0 -15 -6 -10 -27 4 -16 13 -33 20 -38 30 -23 42 -119 18 -144
-7 -7 -12 -20 -10 -29 4 -21 28 -28 28 -8 0 9 7 16 15 16 18 0 20 -52 3 -79
-9 -15 -9 -23 1 -35 8 -9 19 -16 26 -16 7 0 16 -16 19 -36 4 -19 14 -38 22
-41 7 -3 14 -16 14 -28 0 -13 5 -27 10 -30 6 -3 10 -24 10 -45 0 -30 5 -40 19
-45 25 -8 35 -37 27 -80 -5 -27 -3 -33 14 -38 21 -5 28 -41 9 -52 -6 -4 -8
-13 -5 -20 2 -7 0 -17 -6 -23 -16 -16 8 -41 32 -35 15 4 20 0 20 -15 0 -20 15
-37 35 -37 12 0 24 -62 24 -127 1 -34 7 -54 26 -76 14 -17 25 -42 25 -56 0
-28 9 -33 29 -13 10 10 12 9 9 -3 -4 -20 22 -81 32 -75 15 9 18 -50 4 -67 -14
-14 -13 -18 5 -35 15 -14 20 -30 18 -60 -1 -31 5 -48 21 -66 13 -14 25 -43 28
-71 5 -32 16 -56 33 -74 15 -15 33 -47 41 -72 21 -66 49 -110 71 -110 24 0 25
-16 2 -29 -14 -7 -15 -12 -5 -24 7 -8 11 -30 8 -50 -5 -44 13 -107 31 -107 21
0 15 -18 -9 -26 -22 -6 -21 -7 5 -26 15 -11 27 -28 27 -38 0 -9 7 -23 16 -30
11 -10 14 -23 9 -51 -5 -31 -3 -39 14 -49 16 -8 21 -20 21 -50 0 -35 3 -39 23
-37 21 2 22 -2 25 -67 2 -50 8 -76 22 -94 12 -14 20 -40 20 -61 0 -44 29 -106
50 -106 9 0 20 -20 30 -52 9 -29 19 -55 23 -59 4 -4 7 -16 7 -27 0 -12 4 -34
10 -51 5 -17 15 -50 20 -73 8 -32 16 -43 30 -43 24 0 33 -32 34 -117 1 -47 5
-63 16 -65 9 -2 15 -15 15 -33 0 -25 3 -30 23 -27 19 3 22 -1 20 -27 -1 -17 5
-38 15 -49 9 -10 17 -28 17 -39 0 -27 20 -83 30 -83 14 0 28 -55 23 -85 -4
-20 -1 -30 12 -37 13 -8 15 -18 10 -45 -6 -36 -6 -36 24 -30 30 6 31 5 31 -28
0 -21 6 -37 17 -43 15 -9 15 -12 0 -45 -22 -45 -21 -54 3 -69 21 -13 29 -71
11 -82 -16 -10 -20 -46 -5 -46 8 0 14 7 14 15 0 8 4 15 8 15 14 0 32 -23 32
-41 0 -9 6 -22 14 -28 7 -6 16 -28 19 -47 4 -20 14 -45 23 -55 11 -12 16 -36
16 -69 0 -27 4 -53 9 -56 15 -9 10 -46 -8 -66 -18 -20 -12 -32 24 -43 17 -5
22 -3 17 8 -3 8 2 17 10 20 21 8 37 -23 24 -46 -8 -15 -6 -20 12 -24 14 -4 20
-12 17 -22 -2 -9 2 -23 10 -30 9 -8 12 -23 9 -37 -3 -12 -2 -26 4 -29 5 -3 10
-21 10 -40 0 -36 17 -56 30 -35 13 21 32 0 25 -27 -3 -14 -2 -30 3 -36 5 -7
13 -30 17 -52 4 -22 12 -43 18 -47 6 -3 13 -33 15 -66 3 -46 8 -59 18 -55 9 3
14 -2 14 -15 0 -11 -5 -22 -11 -24 -9 -3 -9 -9 -1 -25 8 -15 18 -19 37 -15
l25 4 -3 -81 c-3 -70 -1 -81 13 -81 21 0 43 -69 34 -104 -4 -19 0 -28 19 -41
14 -9 28 -30 32 -48 12 -62 12 -157 -1 -180 -7 -12 -21 -37 -30 -54 -10 -18
-22 -33 -28 -33 -6 0 -19 28 -29 63 -10 34 -29 85 -42 112 -31 64 -58 154 -51
170 3 8 -2 19 -10 26 -22 18 -39 57 -93 219 -32 93 -59 161 -75 185 -8 12 -18
39 -21 59 -4 20 -11 38 -15 41 -4 3 -20 44 -35 92 -36 112 -67 202 -98 278
-37 94 -109 289 -152 415 -12 36 -33 88 -47 115 -14 28 -35 82 -48 120 -28 84
-38 112 -55 145 -7 14 -16 39 -20 57 -3 18 -15 50 -26 72 -10 22 -19 49 -19
59 0 11 -6 25 -14 31 -8 7 -19 33 -25 59 -5 26 -17 61 -25 77 -9 17 -16 35
-16 42 0 6 -7 24 -15 40 -8 15 -36 82 -61 148 -25 66 -50 129 -55 140 -5 11
-18 46 -29 78 -11 31 -29 83 -40 115 -11 31 -24 66 -29 77 -5 11 -24 58 -42
105 -39 104 -87 229 -148 385 -4 11 -18 52 -31 90 -12 39 -27 76 -33 83 -5 7
-13 29 -18 50 -15 74 -53 172 -88 232 -12 22 -31 77 -45 137 -7 29 -21 64 -30
77 -9 14 -23 51 -31 81 -8 31 -23 75 -34 98 -11 23 -46 112 -77 197 -31 85
-69 190 -85 232 -16 43 -29 82 -29 88 0 16 -61 172 -77 195 -7 11 -13 27 -13
37 0 10 -11 41 -24 70 -32 71 -56 147 -56 178 0 14 -6 34 -13 45 -7 11 -23 47
-35 80 -13 33 -36 87 -52 120 -17 34 -30 66 -30 73 0 6 -8 27 -17 47 -16 33
-20 35 -48 29 -16 -4 -38 -7 -47 -6 -29 2 -40 2 -103 -2 -33 -3 -154 -5 -270
-5 -115 -1 -221 -1 -235 -1 -84 -1 -337 0 -350 1 -8 1 -82 -1 -163 -4 -86 -4
-159 -2 -174 4 -17 6 -36 6 -59 -3 -24 -8 -42 -9 -67 -1 -23 7 -40 7 -52 0
-13 -7 -24 -6 -37 2 -14 8 -24 9 -39 0 -14 -7 -29 -7 -51 0 -20 7 -44 7 -75 1
-28 -7 -49 -7 -57 -1 -7 6 -31 6 -63 0 -34 -6 -59 -6 -71 0 -11 6 -24 6 -32 1
-8 -5 -24 -7 -35 -4 -11 3 -67 6 -125 7 l-105 2 3 35 c4 43 16 57 36 41 10 -9
16 -9 21 -1 4 7 18 9 30 6 14 -4 29 0 38 9 13 13 18 10 38 -20 27 -39 44 -46
36 -15 -3 13 3 31 19 48 18 21 23 23 24 10 0 -9 -5 -20 -10 -23 -12 -7 -4 -25
11 -25 5 0 9 7 9 16 0 11 8 15 28 12 27 -3 29 2 17 33 -4 10 0 19 10 23 25 9
37 -2 25 -24 -12 -22 7 -40 21 -19 4 7 12 10 16 5 4 -5 2 -11 -4 -13 -16 -6
-17 -39 -3 -48 6 -4 20 5 31 19 23 30 34 32 55 11 21 -21 35 -19 41 6 3 12 11
18 19 15 8 -3 20 -9 28 -12 11 -4 15 3 18 27 2 18 9 34 16 37 8 2 10 -2 5 -13
-5 -14 -2 -16 18 -10 13 4 28 11 33 16 13 12 46 12 46 0 0 -5 -9 -13 -20 -16
-27 -9 -25 -23 5 -37 14 -6 25 -17 25 -25 0 -21 41 -15 47 7 4 15 11 18 29 14
17 -4 30 1 48 21 21 23 28 25 41 15 9 -8 13 -21 9 -36 -7 -29 7 -31 31 -4 14
16 15 23 6 34 -16 19 -6 36 21 36 14 0 18 -5 15 -15 -4 -8 -2 -17 3 -20 6 -4
7 -17 4 -31 -4 -16 -1 -26 9 -30 25 -9 39 4 27 26 -14 27 2 32 49 15 23 -8 41
-10 41 -5 0 20 -13 40 -26 40 -8 0 -14 5 -14 11 0 7 12 9 36 5 22 -5 41 -3 49
4 15 12 35 6 35 -11 0 -5 -6 -9 -14 -9 -27 0 -26 -18 1 -59 30 -46 45 -42 45
13 0 39 8 45 28 21 7 -8 25 -15 41 -15 16 0 29 -5 29 -12 0 -6 3 -9 6 -5 3 3
-1 20 -9 36 -11 22 -12 31 -4 31 7 0 23 3 36 7 21 5 22 3 16 -17 -8 -25 7 -40
43 -40 24 0 28 10 11 27 -21 21 2 32 61 30 33 -1 60 -5 60 -9 0 -5 -7 -8 -15
-8 -9 0 -20 -11 -25 -24 -5 -13 -13 -25 -18 -27 -5 -2 4 -17 21 -34 28 -27 30
-28 25 -8 -6 23 15 59 56 96 26 23 29 22 21 -12 -7 -33 2 -43 33 -34 17 4 20
10 15 34 -4 21 -2 29 9 29 25 0 51 -36 43 -61 -5 -14 -2 -25 6 -30 21 -13 27
-11 34 11 3 11 15 20 26 20 10 0 19 4 19 9 0 17 -29 33 -50 26 -13 -4 -20 -2
-20 7 0 10 16 14 56 14 39 1 52 -2 45 -9 -18 -18 -12 -35 15 -41 34 -9 52 7
34 29 -13 15 -10 16 32 10 29 -4 48 -3 52 4 8 13 66 15 66 2 0 -5 -9 -15 -20
-22 -19 -14 -19 -14 3 -41 16 -19 26 -25 37 -18 12 8 12 12 0 35 -13 24 -13
28 5 38 20 11 136 18 168 10 9 -2 17 -10 17 -18 0 -7 8 -15 18 -19 9 -3 23 -9
30 -12 6 -3 12 1 12 9 0 8 -9 17 -21 20 -43 11 -14 32 47 33 83 2 86 3 79 14
-4 7 -426 10 -1234 10 l-1229 0 -16 -25z m304 -15 c0 -5 -4 -10 -10 -10 -5 0
-10 5 -10 10 0 6 5 10 10 10 6 0 10 -4 10 -10z m280 0 c0 -5 -4 -10 -10 -10
-5 0 -10 5 -10 10 0 6 5 10 10 10 6 0 10 -4 10 -10z m330 6 c0 -2 -3 -11 -6
-20 -9 -23 -24 -20 -24 4 0 11 7 20 15 20 8 0 15 -2 15 -4z m-360 -10 c0 -9
-30 -14 -35 -6 -4 6 3 10 14 10 12 0 21 -2 21 -4z m2450 -1187 c0 -11 -4 -17
-10 -14 -5 3 -10 15 -10 26 0 11 5 17 10 14 6 -3 10 -15 10 -26z m153 -412
c-3 -5 -10 -4 -15 1 -6 6 -7 16 -3 22 6 9 9 9 16 -1 4 -7 5 -17 2 -22z m252
-747 c3 -5 -1 -10 -9 -10 -9 0 -16 5 -16 10 0 6 4 10 9 10 6 0 13 -4 16 -10z
m1249 -3533 c7 -28 6 -28 -36 -25 -35 2 -43 7 -43 23 0 15 8 21 35 25 19 3 35
6 36 5 1 0 4 -13 8 -28z m-345 -4256 c8 -5 12 -18 9 -29 -5 -18 -3 -18 24 -8
25 9 32 8 42 -7 16 -21 25 -22 41 0 11 15 15 15 30 3 14 -12 20 -11 44 3 24
14 30 14 48 2 12 -8 38 -12 66 -10 39 2 49 -1 58 -17 8 -15 20 -19 62 -18 29
1 93 -3 142 -9 50 -6 102 -8 116 -5 18 3 28 0 32 -9 4 -12 20 -14 69 -10 52 4
67 2 82 -12 15 -15 21 -16 40 -5 13 7 33 9 45 5 11 -3 26 -3 33 2 23 14 81 12
115 -4 27 -12 36 -13 48 -3 12 10 22 9 48 -3 29 -14 78 -20 127 -17 33 3 243
-11 252 -16 10 -7 145 -16 205 -15 27 1 45 -4 50 -14 5 -8 20 -16 33 -18 25
-4 70 11 70 22 0 10 86 33 107 29 13 -3 17 -12 16 -33 -2 -32 15 -103 29 -122
5 -6 7 -42 5 -78 -4 -51 -2 -68 9 -72 8 -3 14 -15 14 -28 0 -17 8 -26 30 -34
18 -6 30 -17 30 -27 0 -16 -1 -16 -19 0 -11 10 -24 15 -30 12 -16 -10 -1 -36
20 -36 10 0 19 -7 19 -15 0 -8 6 -24 13 -36 10 -17 9 -22 -7 -34 -11 -9 -16
-20 -12 -31 5 -13 9 -14 21 -4 15 13 15 13 16 -78 0 -29 2 -32 21 -26 18 5 20
3 14 -19 -8 -34 2 -57 25 -57 23 0 24 -8 4 -30 -14 -16 -14 -21 6 -54 11 -20
27 -36 33 -36 21 0 17 -59 -3 -70 -29 -15 -45 12 -112 190 -33 91 -72 194 -86
230 -13 36 -31 85 -39 110 -9 25 -23 63 -33 85 -10 22 -26 61 -36 88 -20 54
-12 51 -180 67 -66 6 -187 17 -270 25 -82 8 -199 19 -260 25 -157 14 -684 68
-790 80 -49 6 -144 17 -210 25 -155 18 -282 41 -320 58 -52 24 -104 38 -115
32 -15 -9 -77 14 -84 31 -10 25 25 29 84 8 49 -17 61 -18 88 -7 17 7 33 17 37
23 8 12 16 12 34 1z m2332 -1166 c19 -19 40 -35 47 -35 7 0 12 -12 12 -29 0
-16 7 -34 15 -41 24 -20 30 -78 10 -100 -17 -19 -17 -22 3 -67 19 -44 24 -48
52 -45 16 1 30 -2 30 -8 0 -5 -4 -10 -10 -10 -5 0 -14 -10 -21 -21 -12 -23 3
-42 26 -33 6 3 17 -2 24 -10 10 -11 10 -19 0 -34 -18 -29 -6 -51 25 -45 21 4
26 2 26 -16 0 -18 -3 -19 -25 -11 -16 6 -26 6 -31 -1 -12 -21 6 -37 50 -43 37
-6 46 -11 46 -27 0 -15 -6 -19 -22 -17 -19 2 -24 -2 -26 -24 -4 -31 5 -36 22
-12 11 14 15 13 43 -10 41 -35 51 -99 22 -139 -18 -25 -19 -32 -8 -60 7 -18
21 -38 31 -45 12 -9 17 -21 13 -33 -4 -11 -2 -19 4 -19 6 0 11 7 11 16 0 23
35 13 36 -11 1 -11 5 -27 8 -36 4 -9 0 -21 -9 -29 -19 -16 -19 -54 0 -70 8 -7
15 -21 15 -32 0 -16 5 -19 26 -15 27 5 27 6 8 -53 -3 -9 7 -28 22 -43 14 -15
24 -33 21 -41 -10 -26 8 -71 29 -71 17 0 19 -7 17 -52 0 -29 3 -53 8 -53 5 0
9 6 10 13 0 6 5 -1 11 -16 7 -19 7 -32 -1 -41 -13 -16 19 -84 37 -78 7 2 12
-3 12 -12 0 -9 -4 -16 -10 -16 -19 0 -10 -22 22 -52 32 -29 32 -30 13 -45 -19
-13 -19 -15 -2 -24 9 -6 17 -17 17 -25 0 -15 17 -49 38 -76 8 -10 11 -25 7
-38 -5 -17 1 -30 26 -56 26 -26 30 -37 21 -46 -18 -18 -15 -28 8 -28 17 0 19
-5 14 -25 -3 -14 -2 -31 4 -38 6 -6 12 -25 14 -41 4 -35 23 -45 31 -16 9 35
35 24 42 -18 3 -21 5 -43 4 -48 -1 -5 6 -27 15 -48 20 -45 29 -116 15 -116
-12 0 -1 -48 18 -77 8 -12 13 -39 11 -65 l-3 -43 -23 50 c-27 57 -50 116 -122
305 -28 74 -71 187 -95 250 -24 63 -60 160 -80 215 -20 55 -45 120 -56 143
-11 24 -38 94 -60 155 -23 62 -52 138 -65 170 -13 32 -24 63 -24 69 0 6 -11
34 -24 62 -13 28 -40 97 -59 153 -20 55 -40 109 -46 120 -11 20 -72 175 -101
256 -10 28 -32 88 -48 132 -17 44 -54 141 -82 215 -28 74 -60 154 -70 177 -34
73 -23 83 31 28z m-4763 -452 c2 -12 -13 -36 -36 -62 l-40 -44 -228 3 c-126 1
-258 4 -294 5 -36 1 -118 4 -182 5 -131 2 -178 18 -118 39 19 6 42 19 53 28
18 17 19 16 38 -7 17 -22 21 -23 32 -9 15 19 87 20 109 1 13 -10 17 -10 22 4
6 15 8 16 24 0 20 -18 52 -22 52 -6 0 5 13 16 29 24 21 12 31 12 40 3 9 -9 16
-9 32 1 11 7 29 10 40 7 11 -4 19 -2 19 4 0 6 15 11 33 11 l32 -1 -27 -24 -27
-24 30 -6 c17 -4 35 -2 43 4 7 6 16 8 19 4 13 -12 81 -4 89 12 10 17 30 19 56
6 46 -23 77 -27 105 -11 15 8 25 21 22 28 -3 8 -2 18 1 23 9 15 29 5 32 -18z
m5002 1 c0 -8 -4 -12 -10 -9 -5 3 -10 10 -10 16 0 5 5 9 10 9 6 0 10 -7 10
-16z m-5260 -4 c0 -5 -4 -10 -10 -10 -5 0 -10 5 -10 10 0 6 5 10 10 10 6 0 10
-4 10 -10z m-805 -30 c0 -22 -29 -18 -33 3 -3 14 1 18 15 15 10 -2 18 -10 18
-18z m-70 0 c3 -5 -1 -10 -9 -10 -9 0 -16 5 -16 10 0 6 4 10 9 10 6 0 13 -4
16 -10z m46 -43 c-13 -13 -26 -3 -16 12 3 6 11 8 17 5 6 -4 6 -10 -1 -17z
m6199 -277 c0 -5 -2 -10 -4 -10 -3 0 -8 5 -11 10 -3 6 -1 10 4 10 6 0 11 -4
11 -10z m-4980 -520 c13 -7 38 -27 55 -44 16 -17 41 -38 54 -46 13 -8 36 -24
50 -36 24 -18 92 -54 104 -54 11 0 113 -73 120 -86 4 -8 18 -14 31 -14 13 0
31 -9 41 -20 12 -13 25 -18 37 -14 13 4 34 -8 67 -35 27 -23 54 -41 60 -41 7
0 29 -13 49 -29 20 -17 49 -33 64 -36 15 -4 45 -23 65 -42 21 -19 54 -42 73
-50 19 -9 50 -28 68 -44 18 -16 37 -29 42 -29 14 0 80 -66 80 -81 0 -10 13
-14 44 -14 32 0 51 -6 68 -22 14 -13 31 -23 40 -23 8 0 26 -8 39 -18 13 -11
36 -22 51 -25 15 -4 29 -15 33 -26 5 -18 44 -41 70 -41 7 0 25 -13 38 -30 14
-16 30 -30 35 -30 16 0 76 -32 105 -57 16 -12 36 -23 46 -23 10 0 28 -11 41
-25 13 -14 29 -25 36 -25 7 0 18 -8 23 -19 6 -10 26 -22 45 -25 20 -4 39 -14
44 -22 8 -14 45 -37 110 -69 17 -8 32 -21 32 -28 0 -6 20 -21 43 -31 44 -20
93 -48 180 -104 28 -19 65 -39 82 -46 16 -8 50 -36 75 -65 33 -37 52 -51 71
-51 17 0 33 -9 43 -26 10 -14 25 -24 34 -23 16 3 82 -51 82 -66 0 -3 -12 -22
-27 -41 -40 -49 -72 -46 -160 14 -38 27 -96 64 -129 82 -32 18 -68 41 -79 51
-11 9 -43 30 -71 46 -84 47 -144 83 -244 148 -52 34 -131 83 -175 109 -76 44
-190 114 -390 239 -49 31 -133 81 -185 112 -52 31 -156 94 -230 140 -74 46
-164 101 -200 121 -36 21 -72 43 -80 50 -8 6 -69 43 -135 81 -66 39 -158 94
-205 123 -47 29 -128 78 -180 108 -136 78 -242 143 -262 160 -10 9 -18 29 -18
46 0 25 7 34 33 47 38 19 130 19 167 -1z m5584 -1212 c9 -17 16 -39 16 -49 0
-10 5 -21 10 -24 6 -3 10 -16 10 -28 0 -12 -4 -17 -8 -11 -9 9 -52 125 -52
138 0 14 9 4 24 -26z m74 -169 c12 -22 22 -49 22 -59 0 -11 5 -22 10 -25 6 -3
10 -19 10 -35 0 -16 5 -32 10 -35 6 -3 10 -17 10 -30 0 -13 5 -27 10 -30 12
-8 13 -25 1 -25 -11 0 -56 109 -47 117 3 3 0 11 -8 17 -14 12 -56 110 -56 132
0 26 16 14 38 -27z m126 -350 c-2 -4 3 -9 11 -13 16 -6 20 -41 6 -50 -10 -7
-42 79 -33 88 7 8 22 -15 16 -25z m41 -114 c10 -19 15 -40 12 -47 -3 -9 -7 -6
-12 7 -3 11 -11 28 -16 37 -10 19 -12 38 -4 38 2 0 11 -16 20 -35z m155 -401
c0 -8 -4 -12 -10 -9 -5 3 -10 13 -10 21 0 8 5 12 10 9 6 -3 10 -13 10 -21z
m60 -165 c0 -11 -4 -17 -10 -14 -5 3 -10 13 -10 21 0 8 5 14 10 14 6 0 10 -9
10 -21z m27 -48 c6 -10 15 -35 19 -56 4 -22 13 -39 23 -42 13 -3 17 -17 17
-60 1 -34 -2 -50 -7 -41 -8 15 -79 207 -79 214 0 11 17 2 27 -15z m-4257
-2572 c-9 -16 -7 -19 8 -19 12 0 22 -9 25 -21 4 -13 12 -19 23 -17 26 5 29 28
5 35 -12 3 -21 12 -21 19 0 19 30 30 39 16 5 -8 17 -9 45 -1 27 7 41 7 51 -1
7 -6 25 -8 41 -4 19 5 25 4 20 -5 -4 -6 -14 -11 -21 -11 -12 0 -42 -38 -33
-41 2 0 22 -2 45 -4 42 -3 42 -3 45 33 2 31 6 36 23 33 11 -2 36 -5 55 -6 19
-2 41 -3 48 -4 19 -2 14 -19 -9 -31 -15 -8 -24 -8 -34 0 -8 7 -20 10 -27 8 -7
-3 4 -13 26 -23 31 -15 42 -16 58 -6 16 10 24 9 43 -3 26 -17 75 -22 75 -7 0
5 13 14 29 19 23 8 32 7 42 -4 13 -16 70 -19 85 -4 6 6 21 6 41 -2 26 -10 37
-9 57 2 21 11 30 11 49 1 13 -7 36 -11 52 -9 21 2 30 -2 33 -14 4 -21 21 -21
-453 -23 -187 -1 -428 -3 -535 -4 -107 -1 -203 1 -213 4 -40 16 -8 60 51 69
34 5 42 3 42 -9 0 -21 39 -19 62 2 18 16 21 16 49 1 31 -18 44 -10 34 22 -5
15 -1 22 17 29 30 11 40 4 28 -20z m1077 -50 c11 -11 131 -23 208 -20 30 1 37
-1 29 -9 -12 -12 -359 -18 -371 -6 -12 12 7 19 46 18 24 -1 44 4 51 13 15 18
22 19 37 4z m308 -29 c16 -7 12 -9 -18 -9 -23 -1 -36 3 -32 9 7 12 23 12 50 0z
m62 4 c-3 -3 -12 -4 -19 -1 -8 3 -5 6 6 6 11 1 17 -2 13 -5z"/>
<path d="M18520 36919 c0 -5 5 -7 10 -4 6 3 10 8 10 11 0 2 -4 4 -10 4 -5 0
-10 -5 -10 -11z"/>
<path d="M15951 50406 c-12 -14 -5 -26 16 -26 15 0 18 26 4 34 -5 3 -14 0 -20
-8z"/>
<path d="M17505 50400 c-3 -5 -2 -10 4 -10 5 0 13 5 16 10 3 6 2 10 -4 10 -5
0 -13 -4 -16 -10z"/>
<path d="M16150 50356 c0 -9 5 -16 10 -16 6 0 10 4 10 9 0 6 -4 13 -10 16 -5
3 -10 -1 -10 -9z"/>
<path d="M16580 50350 c0 -5 7 -10 15 -10 8 0 15 5 15 10 0 6 -7 10 -15 10 -8
0 -15 -4 -15 -10z"/>
<path d="M37258 50174 c-16 -8 -28 -21 -28 -28 0 -7 -27 -52 -60 -100 -37 -53
-59 -94 -56 -104 8 -25 44 -329 56 -467 6 -66 17 -183 25 -260 48 -472 58
-584 51 -600 -14 -39 -27 6 -46 161 -46 373 -60 493 -65 564 -4 41 -17 174
-30 295 -14 121 -26 236 -27 255 -2 24 -8 35 -18 34 -17 -2 -421 -85 -705
-145 -104 -22 -233 -49 -285 -60 -52 -11 -113 -24 -135 -29 -22 -5 -83 -18
-135 -29 -634 -133 -1245 -280 -1465 -354 -294 -98 -515 -195 -715 -315 -144
-86 -208 -131 -415 -292 -182 -141 -188 -145 -145 -91 71 89 138 155 230 230
52 42 125 104 162 137 128 117 527 320 858 435 47 17 92 33 100 36 8 3 20 7
25 8 6 0 32 11 58 23 27 12 54 22 61 22 17 0 147 39 168 51 10 5 27 9 38 9 11
0 28 4 38 9 18 9 206 69 257 82 17 4 55 14 85 22 60 16 170 41 355 82 123 27
148 33 270 65 177 47 -150 -5 -445 -70 -890 -196 -1392 -366 -1820 -615 -181
-104 -304 -186 -430 -285 -184 -145 -411 -380 -566 -587 -309 -412 -600 -1100
-738 -1748 -65 -303 -143 -890 -172 -1295 -20 -271 -23 -905 -5 -1120 31 -379
41 -484 61 -640 59 -449 114 -732 186 -948 112 -340 249 -646 415 -933 448
-773 1191 -1250 2159 -1385 162 -23 731 -26 885 -5 313 42 529 96 775 193 655
260 1169 737 1494 1387 184 367 316 881 367 1426 16 171 16 567 0 725 -25 246
-82 556 -138 739 -118 391 -312 793 -516 1067 -249 336 -656 640 -1093 817
-312 127 -517 165 -924 174 -282 6 -418 -2 -620 -38 -450 -79 -796 -234 -1140
-507 -63 -51 -121 -92 -127 -92 -19 0 -16 56 7 157 50 214 208 575 318 726
121 166 315 361 467 469 101 71 291 174 430 231 247 101 769 247 1295 362 236
51 339 75 670 154 393 94 589 140 685 162 153 35 245 61 250 69 3 5 -17 190
-45 412 -44 355 -105 890 -141 1238 -6 63 -14 118 -18 122 -3 3 -18 0 -33 -8z
m-1710 -3504 c70 -11 153 -29 184 -40 32 -11 64 -20 72 -20 34 0 252 -76 277
-97 8 -7 21 -13 28 -13 7 0 29 -9 49 -20 20 -11 87 -43 147 -72 169 -79 386
-229 509 -351 57 -56 127 -136 157 -177 29 -41 79 -102 111 -134 63 -64 128
-172 128 -212 0 -24 10 -47 59 -139 11 -21 21 -45 21 -52 0 -7 5 -13 11 -13 5
0 16 -15 24 -34 8 -19 19 -37 24 -40 5 -3 12 -22 15 -42 4 -19 10 -43 13 -52
15 -44 -21 13 -70 108 -71 140 -109 198 -230 348 -155 193 -282 313 -487 463
-307 224 -643 359 -1050 420 -208 31 -573 31 -779 0 -155 -24 -342 -69 -516
-125 -60 -20 -116 -36 -123 -36 -39 0 124 93 263 150 103 43 246 92 320 111
50 12 115 31 145 42 129 46 487 60 698 27z m-590 -1621 c451 -48 826 -346
1002 -794 85 -218 129 -457 137 -743 13 -448 -76 -798 -277 -1091 -246 -359
-536 -530 -925 -545 -293 -11 -527 51 -752 200 -97 64 -248 210 -331 319 -204
269 -330 789 -301 1236 13 201 28 285 85 482 73 251 174 430 333 588 237 236
509 345 889 358 23 0 86 -4 140 -10z m-1217 -2866 c7 -13 24 -30 38 -39 14 -9
37 -27 51 -40 61 -55 108 -94 114 -94 4 0 23 -11 43 -25 20 -13 40 -22 45 -19
4 3 12 -6 18 -20 6 -16 17 -26 29 -26 11 0 26 -6 33 -12 36 -35 47 -39 66 -29
15 8 25 6 42 -9 12 -11 45 -22 77 -26 34 -4 57 -12 60 -21 5 -12 16 -14 49 -9
33 4 47 1 60 -12 13 -12 19 -13 22 -4 5 17 77 15 92 -3 12 -14 15 -14 31 1 10
9 26 13 36 10 41 -12 191 -17 198 -6 4 7 39 9 101 5 53 -3 100 -2 107 2 6 3
40 7 77 8 36 1 72 4 80 7 70 24 79 26 91 12 10 -12 16 -11 41 4 25 15 30 15
38 2 15 -24 13 -26 -47 -55 -154 -73 -338 -109 -553 -108 -260 1 -439 49 -663
176 -76 43 -165 104 -204 138 -85 75 -223 218 -223 230 0 15 38 -13 51 -38z
m1697 -330 c6 -19 -25 -16 -32 3 -4 11 -1 14 11 12 9 -2 18 -9 21 -15z"/>
<path d="M21142 49973 c-145 -86 -456 -352 -598 -513 -84 -95 -198 -261 -267
-390 -100 -185 -181 -441 -223 -700 -21 -129 -24 -468 -5 -580 63 -378 167
-653 371 -985 248 -404 399 -704 469 -932 55 -179 73 -291 73 -468 0 -253 -36
-406 -166 -694 -67 -148 -107 -202 -234 -317 -277 -249 -591 -430 -917 -529
-219 -66 -549 -136 -850 -181 -93 -13 -192 -29 -220 -34 -27 -5 -108 -19 -180
-30 -263 -42 -488 -90 -743 -161 -373 -102 -572 -180 -877 -343 -464 -247
-839 -607 -1064 -1020 -106 -196 -152 -319 -223 -601 l-33 -130 1 -255 c0
-219 3 -272 22 -375 38 -203 114 -496 141 -543 9 -15 10 -14 11 5 0 12 -8 73
-17 135 -21 145 -24 584 -5 703 19 117 69 314 104 413 39 113 148 334 208 425
98 149 338 415 478 529 233 192 603 381 989 507 186 61 669 170 968 220 39 6
144 25 235 41 91 16 237 41 325 55 230 38 589 110 740 150 691 181 1184 502
1518 985 143 208 228 411 284 680 26 124 28 153 28 345 0 234 -11 315 -70 530
-87 316 -224 583 -489 955 -157 220 -231 339 -317 508 -206 404 -290 761 -260
1097 35 380 175 729 430 1070 41 55 156 182 255 283 99 100 177 182 175 182
-2 0 -32 -17 -67 -37z"/>
<path d="M25935 49203 c-271 -10 -559 -90 -759 -210 -87 -52 -215 -153 -293
-231 -122 -123 -194 -234 -310 -485 -79 -172 -120 -284 -130 -355 -8 -59 3
-51 57 40 83 139 219 336 276 397 270 292 698 504 1149 571 195 28 515 28 700
0 298 -46 699 -177 985 -320 56 -28 106 -50 112 -48 13 5 -192 152 -308 222
-102 61 -326 175 -461 235 -306 134 -658 198 -1018 184z"/>
<path d="M50654 49085 c-481 -48 -1062 -213 -1545 -438 -101 -47 -460 -258
-614 -360 -120 -80 -345 -249 -370 -278 l-20 -23 35 21 c278 163 473 259 770
376 467 184 861 292 1290 352 590 82 1195 81 1784 -6 469 -68 853 -164 1176
-292 41 -16 89 -33 105 -38 l30 -8 -23 19 c-13 11 -87 56 -165 101 -539 313
-1092 504 -1661 574 -150 19 -604 18 -792 0z"/>
<path d="M18480 48270 c0 -5 5 -10 10 -10 6 0 10 5 10 10 0 6 -4 10 -10 10 -5
0 -10 -4 -10 -10z"/>
<path d="M27840 47304 c-722 -43 -1346 -224 -1940 -562 -171 -97 -172 -98
-165 -136 6 -27 109 -315 310 -866 30 -80 65 -174 80 -210 15 -36 46 -121 70
-190 24 -69 49 -140 55 -157 12 -32 41 -45 55 -23 17 27 406 224 620 313 449
187 677 237 1080 237 253 0 415 -23 589 -81 145 -49 243 -108 329 -195 129
-134 174 -257 143 -402 -38 -184 -171 -322 -371 -385 -159 -51 -160 -51 -845
-54 l-645 -3 -2 -697 c-2 -384 1 -704 6 -711 7 -11 123 -14 607 -17 633 -3
742 -10 897 -54 236 -68 412 -227 462 -416 17 -68 20 -187 5 -266 -17 -92 -92
-230 -164 -301 -184 -184 -487 -268 -970 -268 -537 0 -1016 110 -1476 339
-148 74 -436 237 -445 252 -16 25 -35 -2 -84 -118 -30 -71 -57 -139 -62 -153
-4 -14 -44 -124 -89 -245 -178 -481 -330 -904 -336 -932 -5 -27 0 -35 48 -77
164 -145 672 -403 988 -501 243 -76 572 -156 780 -189 309 -49 427 -58 755
-58 801 -1 1374 130 1896 433 184 107 311 203 446 337 382 380 573 859 573
1438 0 409 -106 752 -328 1063 -90 127 -300 314 -490 436 -34 22 -62 45 -62
51 0 6 43 49 96 95 294 259 482 574 554 927 81 400 29 808 -149 1179 -118 244
-292 457 -501 614 -395 297 -831 465 -1380 534 -121 15 -778 28 -940 19z m895
-95 c207 -26 247 -32 325 -50 343 -81 661 -217 935 -399 62 -42 107 -82 261
-230 156 -152 178 -187 228 -365 10 -33 24 -80 31 -105 30 -96 44 -230 16
-159 -34 90 -129 273 -182 351 -83 121 -258 296 -384 385 -251 176 -395 247
-710 347 -339 108 -741 155 -1216 142 -281 -7 -390 -17 -649 -57 -253 -38
-261 -39 -255 -29 3 5 25 14 48 20 23 6 60 19 82 30 47 22 181 54 315 75 52 8
124 19 160 25 36 6 108 15 160 19 127 11 747 11 835 0z m1264 -3354 c35 -9 97
-32 137 -52 105 -51 269 -185 335 -272 30 -40 70 -93 90 -119 19 -26 46 -67
59 -92 14 -25 30 -52 36 -60 7 -8 14 -42 17 -75 2 -33 7 -71 11 -85 4 -14 -7
0 -24 30 -139 237 -137 235 -260 353 -66 64 -146 134 -178 155 -83 57 -192
122 -229 137 -42 18 -133 77 -133 87 0 13 70 9 139 -7z m-3701 -1617 c9 -9 35
-22 57 -29 22 -8 45 -19 50 -25 6 -7 27 -17 48 -24 20 -6 42 -20 47 -31 6 -10
20 -19 31 -19 11 0 27 -7 36 -15 8 -8 19 -13 23 -10 5 3 26 -4 47 -15 21 -11
43 -20 50 -20 6 0 27 -9 45 -19 18 -11 51 -22 73 -26 47 -8 87 -25 98 -42 4
-7 21 -13 37 -13 17 0 30 -4 30 -9 0 -5 19 -12 43 -16 23 -4 49 -13 57 -20 17
-14 58 -25 107 -29 17 -1 38 -8 45 -14 8 -6 35 -13 61 -15 25 -2 53 -9 61 -16
8 -7 25 -9 39 -6 17 5 26 2 30 -9 4 -10 19 -16 41 -16 26 0 35 -5 39 -21 3
-12 9 -19 14 -16 4 3 24 -2 43 -11 19 -9 56 -16 82 -17 26 -1 54 -8 63 -15 13
-11 20 -11 40 0 21 11 27 11 42 -3 15 -13 25 -14 61 -4 36 10 48 9 71 -4 18
-11 34 -13 44 -8 10 6 18 5 22 -1 5 -8 33 -9 85 -4 53 4 80 3 84 -5 5 -7 -6
-11 -31 -12 -710 -15 -1257 116 -1822 436 -96 54 -97 56 -110 105 -7 27 -10
53 -7 58 7 11 99 -19 124 -40z"/>
<path d="M53495 47300 c-450 -22 -703 -66 -1045 -181 -335 -112 -802 -346
-1089 -546 -103 -71 -110 -80 -92 -130 12 -34 124 -288 195 -445 63 -140 76
-169 76 -172 0 -2 17 -42 39 -88 21 -45 80 -175 131 -288 51 -113 106 -234
122 -270 17 -36 41 -89 54 -117 12 -29 25 -53 28 -53 3 0 41 29 85 64 312 252
720 450 1081 524 183 38 272 47 495 46 190 0 234 -3 324 -23 248 -53 444 -165
609 -349 169 -188 236 -364 237 -627 l0 -140 -695 4 c-869 4 -1007 -5 -1368
-94 -354 -87 -611 -199 -857 -373 -102 -73 -292 -262 -376 -374 -213 -286
-345 -631 -395 -1028 -28 -227 -16 -612 26 -830 60 -311 229 -663 434 -902
209 -244 583 -492 906 -601 177 -60 291 -87 505 -118 132 -20 578 -17 713 5
411 64 750 221 1077 495 106 90 175 135 186 124 5 -5 10 -126 11 -268 l3 -260
824 -3 c649 -2 827 1 839 10 14 12 14 251 8 2208 -7 2332 -8 2362 -56 2645
-76 449 -257 883 -510 1220 -94 127 -296 329 -422 423 -152 114 -363 232 -540
303 -225 90 -556 171 -808 198 -134 14 -553 20 -755 11z m390 -95 c217 -15
400 -36 510 -61 97 -21 377 -111 401 -129 19 -14 19 -14 -1 -10 -409 88 -671
118 -1040 118 -455 -1 -791 -52 -1252 -192 -146 -44 -252 -83 -369 -135 -78
-34 -106 -48 -304 -153 -73 -39 -225 -136 -298 -189 -20 -15 -24 -15 -40 -2
-9 8 -39 26 -65 39 -27 13 -50 27 -53 31 -2 4 15 18 38 31 87 49 335 191 393
225 33 19 74 42 90 52 53 30 217 100 350 150 361 134 418 151 655 189 293 48
618 60 985 36z m994 -2810 c25 -12 61 -70 50 -79 -2 -2 -301 0 -664 5 -601 7
-856 3 -1060 -17 -175 -17 -545 -97 -713 -153 -369 -125 -726 -384 -905 -657
-26 -40 -54 -77 -62 -84 -26 -22 -18 12 16 66 18 27 37 63 43 79 6 17 31 67
55 113 36 69 62 100 157 191 276 263 572 389 1144 486 128 22 264 30 450 28
707 -7 1258 -8 1323 -3 60 4 81 10 88 23 12 21 41 22 78 2z m-102 -1457 c-7
-240 -16 -333 -47 -452 -93 -364 -386 -652 -777 -763 -91 -26 -110 -28 -278
-27 -158 0 -194 3 -294 27 -235 55 -395 165 -475 327 -52 107 -69 197 -68 366
0 154 19 248 66 343 93 183 331 338 596 385 57 11 218 14 679 15 l604 1 -6
-222z m28 -858 c-3 -5 -11 -10 -16 -10 -6 0 -7 5 -4 10 3 6 11 10 16 10 6 0 7
-4 4 -10z m-90 -121 c-3 -8 -14 -20 -25 -27 -29 -18 -27 11 3 31 25 17 30 16
22 -4z m-65 -62 c0 -17 -145 -138 -248 -207 -114 -75 -305 -162 -415 -189
-204 -50 -545 -35 -719 31 -35 13 -37 27 -3 20 14 -2 32 1 40 8 13 10 19 9 35
-5 13 -12 24 -15 32 -8 17 12 96 15 103 3 3 -5 22 -3 43 4 68 24 112 29 112
12 0 -13 4 -13 33 -1 22 9 37 11 44 4 6 -6 26 -3 57 11 26 11 67 20 90 20 29
0 52 8 76 25 19 14 41 23 49 20 7 -3 22 2 32 11 10 9 23 13 29 9 7 -4 26 0 43
8 29 14 97 44 137 61 8 3 23 12 33 18 15 11 20 10 31 -4 9 -13 22 -15 54 -11
23 3 42 9 42 13 0 5 14 13 30 19 20 7 30 17 30 30 0 12 5 21 10 21 6 0 10 -4
10 -10 0 -5 5 -10 10 -10 6 0 10 9 10 20 0 22 16 27 22 8 3 -8 13 -5 33 10 15
12 33 22 39 22 6 1 25 12 41 25 35 29 35 29 35 12z"/>
<path d="M37824 47217 c-2 -7 8 -43 22 -82 14 -38 34 -95 44 -125 10 -30 37
-107 60 -170 23 -63 45 -126 50 -140 5 -14 36 -99 70 -190 34 -91 89 -239 122
-330 33 -91 74 -201 90 -245 16 -44 34 -91 38 -105 5 -14 27 -77 50 -140 23
-63 63 -176 90 -250 26 -74 55 -153 63 -175 9 -22 30 -80 47 -130 17 -49 40
-112 50 -140 10 -27 37 -102 60 -165 23 -63 59 -162 80 -220 21 -58 52 -143
68 -190 72 -202 96 -270 128 -357 33 -91 66 -179 146 -398 22 -60 75 -204 118
-320 72 -190 120 -322 312 -845 33 -91 73 -199 88 -240 15 -41 85 -232 154
-425 148 -409 155 -428 191 -520 15 -38 35 -95 45 -125 10 -30 55 -158 100
-285 143 -402 170 -484 170 -511 0 -92 -156 -458 -268 -629 -70 -107 -175
-211 -253 -250 -235 -119 -503 -124 -769 -14 -148 62 -351 178 -446 256 l-54
43 -14 -23 c-22 -35 -198 -480 -321 -811 -36 -98 -111 -290 -165 -427 -55
-136 -100 -252 -100 -258 0 -11 74 -56 232 -140 l98 -53 2 -3101 3 -3102 824
-3 c653 -2 827 0 833 10 5 7 8 1056 6 2338 l-3 2325 950 0 950 0 5 -2335 5
-2335 820 0 820 0 2 3140 c2 1727 -1 3146 -6 3153 -16 27 -59 0 -129 -81 -40
-45 -78 -89 -85 -98 -15 -17 -99 -21 -857 -39 -438 -11 -1400 -13 -1555 -4
-132 8 -210 38 -282 110 -29 29 -53 57 -53 63 0 15 25 14 39 -2 6 -8 42 -26
80 -42 l69 -27 124 60 c122 60 124 61 258 199 355 364 580 765 858 1528 22 61
61 166 85 235 45 122 223 608 334 905 90 243 129 355 223 635 49 146 107 317
130 380 23 63 91 257 150 430 184 536 375 1086 470 1350 23 63 50 140 60 170
10 30 46 134 80 230 34 96 83 238 110 315 27 77 80 230 119 340 38 110 101
290 139 400 39 110 93 265 122 345 167 470 350 1029 339 1036 -5 3 -44 -15
-87 -39 -121 -70 -352 -183 -465 -228 -126 -51 -509 -190 -597 -217 -36 -11
-150 -47 -255 -80 -283 -90 -434 -133 -486 -139 -26 -3 -52 -9 -58 -13 -24
-14 -145 -328 -279 -720 -28 -80 -94 -266 -147 -415 -53 -148 -146 -409 -205
-580 -60 -170 -141 -400 -180 -510 -98 -272 -206 -583 -236 -680 -14 -44 -27
-86 -30 -94 -9 -27 -29 9 -68 119 -85 239 -230 651 -311 885 -136 392 -162
464 -195 555 -17 47 -63 173 -102 280 -38 107 -93 258 -121 335 -64 177 -513
1519 -591 1765 -81 257 -116 351 -134 358 -22 8 -89 -71 -103 -121 -12 -46 -3
-132 17 -165 8 -12 12 -27 9 -32 -7 -11 33 -138 46 -146 5 -3 9 -29 9 -57 0
-29 6 -62 14 -73 8 -11 24 -60 35 -109 21 -90 67 -205 83 -205 4 0 8 -9 8 -19
0 -32 11 -51 30 -51 27 0 34 -17 37 -94 2 -60 7 -74 29 -97 15 -16 30 -28 33
-27 21 2 22 -5 0 -28 l-24 -26 24 -19 c26 -22 43 -81 41 -146 -1 -36 2 -42 22
-45 30 -4 57 -59 58 -118 0 -28 3 -40 9 -32 19 30 49 -55 31 -88 -9 -17 -8
-20 9 -20 23 0 30 -20 34 -90 2 -25 5 -50 9 -55 19 -34 40 -122 35 -151 -6
-35 14 -99 32 -106 6 -1 17 -41 25 -87 8 -46 18 -86 24 -90 5 -3 12 -19 16
-34 4 -17 16 -31 31 -37 30 -11 34 -34 5 -25 -30 10 -24 -12 8 -27 23 -11 30
-26 50 -98 12 -47 21 -96 18 -109 -2 -15 6 -40 19 -62 18 -27 24 -50 23 -86
-1 -32 5 -58 15 -74 9 -13 17 -33 17 -45 0 -12 9 -43 19 -70 11 -27 22 -65 26
-86 4 -26 16 -44 41 -63 32 -25 34 -28 20 -44 -9 -10 -16 -26 -16 -36 0 -16
-6 -13 -35 15 -19 19 -35 38 -35 43 0 11 -22 62 -56 132 -13 28 -24 58 -24 67
0 21 -24 113 -48 187 -11 31 -27 85 -37 121 -9 36 -23 79 -30 95 -8 17 -23 64
-35 105 -31 105 -60 190 -76 222 -8 15 -14 35 -14 45 0 10 -8 34 -18 53 -10
19 -28 69 -41 110 -12 41 -31 102 -42 135 -12 33 -28 80 -36 105 -8 25 -23 68
-33 95 -39 111 -170 503 -190 570 -36 123 -116 364 -158 471 -53 139 -119 331
-131 379 l-7 30 -164 5 c-91 3 -384 7 -653 8 -268 1 -502 5 -520 9 -18 3 -54
26 -82 51 -108 97 -279 190 -291 159z m4943 -1260 c-2 -6 -19 -13 -38 -15 -19
-2 -45 -14 -59 -27 -18 -17 -29 -22 -40 -15 -23 14 -28 12 -42 -17 -17 -34
-38 -41 -45 -14 -8 31 -23 25 -23 -9 0 -40 -31 -57 -55 -30 -10 11 -24 20 -32
20 -19 0 -27 28 -13 45 7 8 27 15 44 16 17 0 78 13 136 28 119 31 174 37 167
18z m-287 -261 c0 -16 -18 -31 -27 -22 -8 8 5 36 17 36 5 0 10 -6 10 -14z
m-1804 -1827 c17 -14 27 -65 29 -139 1 -38 9 -78 18 -97 10 -18 17 -50 17 -72
0 -22 5 -43 10 -46 6 -3 10 -14 10 -23 0 -14 -2 -14 -13 -2 -22 25 -60 129
-54 150 3 11 -1 24 -8 30 -7 6 -20 36 -29 68 -10 31 -24 74 -31 96 -8 21 -12
43 -9 48 6 9 41 2 60 -13z m176 -513 c4 -6 8 -32 8 -58 0 -25 3 -55 7 -65 5
-15 3 -15 -18 4 -14 12 -30 43 -37 68 -18 67 -16 78 11 69 12 -4 25 -12 29
-18z m77 -260 c11 -30 34 -76 50 -104 17 -27 31 -52 31 -55 0 -4 11 -31 25
-61 29 -63 33 -95 11 -76 -8 6 -20 27 -26 45 -6 19 -24 58 -40 87 -17 29 -30
60 -30 69 0 8 -13 36 -29 61 -27 42 -36 67 -32 91 3 19 21 -7 40 -57z m209
-438 c16 -16 16 -51 0 -46 -13 5 -31 58 -19 58 4 0 12 -5 19 -12z m80 -148 c7
0 12 -9 12 -21 0 -29 -21 -19 -44 22 l-20 34 20 -17 c11 -10 26 -18 32 -18z
m92 -14 c0 -15 -26 -46 -39 -46 -20 0 -19 16 1 37 25 26 38 29 38 9z m-2568
-2966 c35 -8 66 -13 71 -12 4 1 7 -5 7 -13 0 -21 30 -31 41 -14 7 12 16 10 51
-7 24 -12 55 -26 71 -32 15 -7 27 -16 27 -22 0 -5 16 -10 36 -10 19 0 43 -4
53 -10 10 -5 61 -14 112 -20 52 -6 110 -16 129 -21 27 -8 44 -7 71 5 20 8 41
11 48 6 7 -4 25 -4 40 0 22 6 29 2 49 -27 25 -36 47 -44 39 -14 -6 25 17 35
43 19 17 -11 24 -7 53 27 32 37 36 39 61 28 29 -14 52 -9 60 13 4 11 15 13 43
8 31 -5 42 -2 57 15 11 12 31 21 46 21 15 0 35 9 45 20 10 11 23 20 30 20 6 0
21 13 32 29 24 31 79 51 64 22 -22 -40 -96 -112 -153 -148 -269 -169 -368
-203 -602 -204 -219 -1 -431 59 -634 179 -65 38 -128 73 -140 76 -33 11 -42
37 -49 133 l-6 87 71 -71 c66 -64 77 -71 134 -83z m1422 79 c-9 -10 -21 -19
-26 -19 -15 0 -8 23 15 48 19 20 23 21 25 7 2 -9 -4 -25 -14 -36z"/>
<path d="M48918 47193 c-18 -20 -178 -289 -258 -433 -29 -52 -101 -176 -160
-275 -59 -99 -152 -259 -207 -355 -142 -248 -237 -408 -418 -705 -87 -143
-220 -361 -295 -485 l-136 -225 -333 -3 c-238 -2 -338 1 -347 9 -12 10 -14
191 -14 1099 0 1036 -5 1360 -20 1360 -4 0 -12 -11 -18 -24 -16 -36 -138 -133
-175 -140 -18 -3 -330 -6 -695 -7 -618 -1 -665 1 -690 17 -15 10 -35 28 -45
40 -9 12 -40 39 -67 59 -28 20 -50 43 -50 51 0 17 -19 19 -24 2 -7 -23 -14
-6700 -8 -6798 l7 -95 885 0 885 0 5 1315 5 1315 331 3 c382 3 334 18 412
-128 27 -52 74 -136 104 -187 133 -229 204 -356 338 -598 239 -434 288 -522
408 -735 267 -473 517 -908 544 -947 l29 -43 1044 0 c1074 0 1069 0 1036 36
-5 5 -63 109 -130 231 -66 122 -169 304 -228 405 -58 101 -168 293 -243 428
-273 488 -369 659 -502 890 -74 129 -206 363 -293 520 -87 157 -261 465 -386
686 -125 221 -233 412 -240 426 -14 32 -22 16 221 423 430 720 570 956 656
1103 49 83 141 241 205 350 64 108 183 312 264 452 82 140 224 381 315 535
217 364 251 425 244 437 -3 5 -18 7 -33 3 -14 -4 -432 -7 -928 -6 -602 1 -904
-2 -908 -9 -4 -7 73 -10 232 -11 131 0 490 -2 798 -5 308 -2 589 -4 624 -4 77
0 76 -3 -47 -90 l-87 -62 -734 -2 c-715 -2 -734 -2 -748 -21 -15 -22 -80 -135
-146 -255 -22 -41 -50 -91 -62 -110 -12 -19 -79 -136 -150 -260 -70 -124 -138
-241 -150 -260 -13 -20 -84 -142 -159 -272 -74 -130 -152 -263 -173 -296 -100
-158 -162 -259 -203 -333 -72 -128 -318 -539 -357 -596 -63 -91 -42 -88 -565
-88 -496 0 -504 1 -458 50 13 14 34 25 46 25 13 0 45 7 71 16 40 14 100 17
375 17 206 0 332 -3 340 -10 29 -22 52 -23 95 -2 24 11 48 30 54 40 5 10 15
19 22 20 20 1 97 114 192 279 48 85 96 164 105 175 10 11 46 70 81 130 34 61
77 130 95 155 18 25 36 59 40 75 8 34 39 95 52 104 4 3 20 26 33 51 32 56 87
147 109 180 17 25 47 79 112 200 83 153 101 186 113 200 7 8 26 40 42 70 16
30 42 73 59 96 16 22 52 85 79 140 28 54 53 101 58 102 4 2 7 10 7 17 0 8 6
18 14 22 33 19 146 247 146 295 0 10 6 32 14 47 13 24 13 34 -1 81 -12 41 -13
58 -4 72 9 14 7 19 -8 28 -25 13 -25 13 -43 -7z"/>
<path d="M18916 47071 c-3 -5 1 -12 10 -15 20 -8 29 -1 19 13 -8 13 -22 14
-29 2z"/>
<path d="M19605 45360 c-3 -5 -1 -10 4 -10 6 0 11 5 11 10 0 6 -2 10 -4 10 -3
0 -8 -4 -11 -10z"/>
<path d="M24786 43678 c-20 -160 -30 -225 -52 -314 -42 -179 -89 -306 -173
-474 -106 -210 -194 -341 -378 -562 -250 -298 -534 -520 -898 -698 -213 -105
-368 -164 -588 -224 -670 -182 -1177 -210 -2058 -111 -123 14 -264 29 -314 35
-673 74 -1300 87 -1704 34 -476 -62 -901 -231 -1221 -485 -81 -64 -246 -226
-295 -289 -52 -67 -176 -262 -212 -333 -59 -116 -129 -396 -121 -484 3 -37 4
-37 15 -13 6 14 28 69 49 124 101 263 319 530 577 705 89 61 337 174 462 211
283 83 561 121 900 121 319 0 631 -30 1265 -121 645 -93 1174 -130 1596 -110
208 10 277 16 474 41 286 36 734 163 999 282 691 313 1193 796 1488 1432 84
182 179 509 214 740 15 98 19 435 6 498 -11 49 -25 47 -31 -5z"/>
<path d="M52675 38235 c-55 -7 -134 -19 -175 -28 -41 -9 -95 -19 -120 -22
-167 -25 -502 -134 -685 -225 -547 -269 -939 -676 -1244 -1290 -111 -224 -175
-398 -225 -610 -113 -480 -146 -895 -111 -1371 23 -310 54 -481 136 -769 154
-537 445 -1008 851 -1377 396 -361 824 -588 1273 -677 506 -100 1069 -93 1550
19 196 46 398 128 604 247 326 187 521 346 755 616 l88 102 -28 34 c-16 19
-90 108 -164 197 -293 356 -631 755 -731 863 -18 20 -20 19 -74 -42 -66 -73
-255 -225 -364 -292 -285 -177 -525 -237 -902 -227 -248 7 -369 33 -544 117
-248 119 -455 306 -620 560 -106 162 -205 366 -190 390 4 7 704 10 1960 10
l1953 0 6 58 c3 31 11 190 17 352 12 295 6 477 -22 660 -5 36 -14 97 -19 135
-63 430 -169 776 -351 1137 -132 260 -260 439 -473 657 -165 167 -246 235
-427 356 -157 105 -452 257 -584 300 -101 33 -387 90 -525 105 -278 30 -463
34 -615 15z m455 -35 c168 -21 248 -44 261 -77 9 -23 24 -30 33 -15 4 7 49 9
89 3 4 -1 6 -15 5 -32 -2 -19 2 -34 10 -36 7 -3 12 4 12 16 0 14 6 21 18 21
22 0 42 -19 42 -39 0 -23 31 -51 55 -51 13 0 29 -7 36 -16 12 -15 9 -16 -41
-9 -30 4 -82 13 -115 20 -223 49 -393 66 -631 60 -229 -6 -338 -16 -504 -49
-257 -51 -512 -149 -742 -285 -88 -52 -280 -189 -338 -241 -19 -17 -62 -54
-94 -82 -32 -27 -75 -68 -94 -91 -71 -86 -133 -149 -139 -143 -3 3 1 14 10 24
10 10 17 24 17 31 0 6 12 24 26 38 14 14 34 40 43 57 10 17 28 33 40 36 15 3
33 23 48 53 14 26 29 47 35 47 5 0 7 9 3 19 -4 13 0 23 12 30 10 6 27 17 37
26 20 15 20 15 0 30 -15 11 -16 15 -4 15 8 0 24 15 35 33 11 18 43 46 70 63
28 18 57 38 66 46 8 8 23 17 32 21 9 3 17 11 17 17 0 5 7 10 15 10 9 0 21 11
27 25 7 16 19 25 33 25 24 0 49 22 38 33 -3 4 1 7 10 7 10 0 17 8 17 19 0 23
26 40 105 70 33 13 87 36 120 51 33 15 71 31 85 35 14 4 34 14 45 21 11 8 30
14 42 14 12 0 49 14 81 30 33 17 71 30 84 30 14 0 38 7 55 15 31 15 107 35
153 39 14 1 44 7 68 14 42 13 67 16 232 32 89 8 334 3 440 -10z m685 -261 c10
-14 1 -21 -19 -13 -9 3 -13 10 -10 15 7 12 21 11 29 -2z m70 -29 c3 -5 -1 -10
-9 -10 -8 0 -18 5 -21 10 -3 6 1 10 9 10 8 0 18 -4 21 -10z m-2901 -782 c-19
-32 -57 -78 -65 -78 -18 0 -8 26 22 58 29 31 57 44 43 20z m-94 -124 c-18 -21
-24 -10 -9 18 8 14 14 18 17 10 2 -7 -2 -19 -8 -28z m2295 -264 c152 -38 302
-107 417 -191 196 -142 356 -410 434 -723 14 -56 32 -118 40 -140 8 -21 14
-39 12 -40 -2 -1 -102 1 -223 5 -121 3 -634 12 -1140 19 -727 10 -923 15 -934
26 -27 25 95 349 196 522 161 276 451 487 733 532 41 6 82 13 90 15 44 11 301
-6 375 -25z m-1161 -1148 c6 -4 38 -6 71 -4 94 6 109 5 113 -7 2 -6 15 -11 28
-11 14 0 27 -7 30 -15 4 -8 15 -15 26 -15 17 0 19 5 14 25 -6 25 7 35 19 14 5
-7 13 -5 25 6 14 13 23 14 39 6 11 -6 31 -11 45 -11 14 0 28 -4 31 -10 9 -15
25 -12 25 5 0 17 25 21 35 5 6 -9 24 -6 62 12 17 9 29 6 58 -11 29 -17 40 -19
56 -10 11 6 27 8 36 5 8 -3 45 -1 83 5 58 10 73 9 92 -3 19 -11 33 -12 75 -4
28 6 55 14 59 18 4 4 20 0 35 -9 23 -14 31 -15 41 -5 20 20 40 14 38 -10 -3
-39 -1 -41 19 -17 19 23 19 23 55 6 45 -21 56 -21 70 -2 10 14 17 14 64 -1 38
-12 56 -14 64 -6 7 7 17 7 35 -1 16 -7 27 -7 31 -1 8 12 92 17 92 6 0 -10 151
-9 165 0 6 3 37 0 70 -7 52 -12 61 -12 76 1 14 13 20 12 54 -2 30 -12 44 -13
63 -5 16 8 34 8 56 2 109 -34 117 -35 137 -23 14 9 25 10 39 2 22 -12 26 -35
9 -46 -6 -4 -376 -5 -823 -4 -446 1 -1034 3 -1306 4 -272 1 -501 5 -507 9 -19
12 -16 37 5 44 9 3 27 15 39 26 18 16 25 18 38 7 16 -13 50 -6 40 9 -8 13 33
34 55 28 10 -2 24 -1 31 4 16 9 177 2 193 -9z m2357 -1875 c-8 -8 -11 -7 -11
4 0 20 13 34 18 19 3 -7 -1 -17 -7 -23z m-41 -26 c0 -18 -218 -243 -278 -286
-132 -96 -299 -173 -481 -221 -85 -23 -119 -26 -296 -29 -212 -3 -324 8 -460
47 -38 11 -94 26 -124 33 -74 19 -161 55 -161 67 0 6 11 8 28 4 15 -4 43 -10
62 -15 19 -4 45 -13 58 -20 13 -7 35 -11 50 -10 15 2 43 -2 62 -9 89 -28 275
-50 353 -41 6 0 39 -1 72 -4 32 -3 64 -2 70 2 23 18 71 28 93 20 17 -6 28 -5
38 6 15 14 22 17 54 19 8 1 16 10 19 21 7 37 71 64 71 30 0 -23 31 -18 37 5 7
26 52 50 93 50 16 0 39 5 50 10 11 6 29 15 40 20 11 6 40 10 65 10 32 0 47 5
54 18 5 9 39 28 76 42 37 14 73 33 79 43 6 9 20 17 31 17 11 0 26 9 32 19 7
11 26 22 43 26 17 4 38 17 46 30 9 14 25 27 35 30 11 4 34 22 51 41 33 36 38
39 38 25z m-1836 -366 c25 -19 9 -19 -24 0 -14 8 -19 14 -10 14 8 0 24 -6 34
-14z"/>
<path d="M53445 38070 c-7 -12 2 -30 16 -30 12 0 12 27 0 35 -5 3 -12 1 -16
-5z"/>
<path d="M34320 38224 c-14 -3 -95 -14 -180 -25 -483 -64 -972 -273 -1350
-575 -358 -287 -685 -760 -875 -1269 -91 -243 -173 -595 -206 -885 -20 -174
-17 -666 5 -860 48 -427 129 -744 266 -1055 172 -391 349 -660 607 -926 360
-370 767 -609 1263 -743 236 -63 460 -89 780 -89 317 -1 431 13 750 89 255 61
552 199 824 382 148 100 237 173 385 317 445 433 753 1043 865 1715 39 233 49
382 50 710 1 343 -6 447 -50 717 -61 376 -194 764 -366 1067 -137 241 -263
410 -448 600 -366 376 -752 602 -1269 742 -50 13 -96 14 -61 1 55 -21 171 -60
199 -67 18 -5 38 -13 44 -19 6 -6 17 -11 25 -11 29 0 225 -105 230 -122 2 -10
10 -18 17 -18 7 0 29 -13 50 -30 21 -16 43 -30 50 -30 6 0 20 -9 30 -20 10
-11 24 -20 32 -20 7 0 13 -4 13 -9 0 -5 10 -13 23 -17 12 -3 29 -14 38 -23 9
-9 35 -33 58 -54 22 -21 41 -42 41 -48 0 -5 11 -14 24 -19 14 -5 26 -19 28
-32 2 -16 16 -29 46 -42 31 -14 42 -25 42 -41 0 -27 35 -62 45 -45 11 17 35
-8 35 -37 0 -13 7 -26 15 -29 8 -4 15 -12 15 -20 0 -8 6 -11 15 -8 10 4 18 -3
24 -19 5 -14 15 -28 21 -32 6 -4 9 -13 6 -21 -3 -8 4 -19 16 -25 22 -12 57
-48 58 -60 0 -13 90 -97 109 -104 19 -6 21 -12 16 -37 -5 -20 -4 -28 3 -24 6
3 16 -9 22 -29 6 -19 16 -35 21 -35 5 0 9 -7 9 -15 0 -8 4 -15 9 -15 5 0 11
-10 14 -22 7 -26 6 -24 -60 65 -15 20 -57 72 -93 115 -36 43 -81 97 -100 121
-194 237 -638 522 -1031 662 -264 94 -558 139 -906 139 -308 0 -572 -36 -826
-112 -45 -14 -58 -6 -19 11 15 8 35 17 44 22 10 5 24 9 32 9 7 0 19 7 26 15 7
8 23 15 36 15 27 0 65 19 77 38 22 35 78 81 92 76 9 -4 15 0 15 8 0 32 137 66
343 84 42 4 77 11 77 15 0 9 -90 10 -140 3z m509 -1586 c215 -52 391 -151 545
-303 269 -265 399 -596 437 -1108 22 -292 -23 -654 -113 -912 -152 -436 -426
-732 -783 -849 -149 -48 -276 -57 -445 -32 -391 59 -709 304 -908 701 -112
221 -165 505 -166 880 -1 372 46 633 166 912 56 131 108 217 199 327 124 151
254 247 436 326 84 36 217 74 293 84 71 9 255 -5 339 -26z m-1006 -3119 c23
-12 55 -31 70 -41 17 -13 38 -18 53 -15 20 3 27 -1 34 -19 11 -27 25 -31 34
-9 4 12 17 14 58 10 29 -3 78 -8 108 -10 30 -3 80 -9 110 -15 189 -34 263 -41
392 -38 125 3 137 2 142 -15 3 -13 10 -16 29 -11 41 10 68 -3 61 -30 -4 -19
-1 -25 20 -30 15 -4 35 -2 45 4 15 7 20 6 25 -7 8 -19 10 -16 -31 -37 -44 -22
-157 -42 -284 -51 -284 -19 -581 76 -845 271 -93 69 -100 83 -21 43z"/>
<path d="M34508 38223 c6 -2 18 -2 25 0 6 3 1 5 -13 5 -14 0 -19 -2 -12 -5z"/>
<path d="M34668 38223 c7 -3 16 -2 19 1 4 3 -2 6 -13 5 -11 0 -14 -3 -6 -6z"/>
<path d="M34731 38225 c3 -2 31 -6 63 -8 34 -3 52 -1 44 4 -13 9 -115 13 -107
4z"/>
<path d="M34900 38211 c22 -13 84 -18 90 -6 3 6 -17 11 -50 13 -36 1 -50 -1
-40 -7z"/>
<path d="M35080 38190 c0 -5 7 -10 16 -10 8 0 12 5 9 10 -3 6 -10 10 -16 10
-5 0 -9 -4 -9 -10z"/>
<path d="M35140 38180 c8 -5 24 -10 35 -10 17 0 17 2 5 10 -8 5 -24 10 -35 10
-17 0 -17 -2 -5 -10z"/>
<path d="M26220 35028 l0 -3148 838 0 839 0 6 563 c4 309 7 840 7 1180 l0 617
286 -2 286 -3 63 -100 c34 -55 96 -158 137 -230 69 -119 166 -286 383 -660
210 -361 396 -686 560 -975 98 -173 189 -332 202 -352 l23 -38 985 0 c555 0
985 4 985 9 0 5 -20 42 -43 82 -24 41 -106 184 -182 319 -76 135 -211 369
-300 520 -89 151 -200 340 -245 420 -46 80 -153 264 -238 410 -189 323 -328
562 -476 820 -185 321 -331 572 -365 624 -17 28 -31 57 -31 66 0 9 100 185
223 391 123 206 360 604 527 884 166 281 341 573 388 650 96 158 386 643 541
903 57 95 101 178 98 185 -3 9 -29 11 -93 7 -49 -3 -451 -3 -894 0 -443 3
-811 3 -818 1 -7 -2 -45 -58 -84 -125 -39 -66 -118 -202 -176 -301 -116 -196
-327 -553 -487 -820 -56 -93 -162 -271 -235 -395 -292 -495 -364 -613 -387
-641 l-25 -29 -298 0 c-237 0 -300 3 -309 13 -8 10 -12 332 -13 1155 l-3 1142
-838 2 -837 3 0 -3147z m5316 3106 c3 -10 -123 -119 -165 -144 -23 -13 -111
-15 -651 -13 -344 2 -640 5 -658 8 -23 4 -32 11 -29 20 3 7 -3 15 -14 18 -13
3 -19 14 -19 31 0 21 5 26 25 26 16 0 25 6 25 15 0 18 16 20 26 4 3 -6 1 -15
-6 -19 -24 -15 -7 -45 28 -48 31 -3 33 -2 22 18 -15 27 -8 34 37 37 20 1 40 7
44 14 8 14 29 3 29 -16 0 -7 -7 -16 -16 -19 -8 -3 -12 -11 -9 -16 8 -12 35 5
35 22 0 25 27 35 76 28 37 -6 53 -4 66 7 13 11 21 12 37 4 21 -12 66 -6 88 11
7 6 19 5 32 -2 15 -7 27 -8 40 0 13 6 28 7 45 0 16 -6 27 -6 31 0 8 13 71 13
95 0 13 -7 21 -7 25 0 4 6 48 10 103 9 109 -1 505 12 511 17 8 7 145 -3 147
-12z m-4713 -71 c4 -2 7 -11 7 -19 0 -16 16 -19 25 -4 4 6 32 10 63 9 31 -1
72 4 90 9 28 9 35 8 51 -10 20 -21 61 -18 61 5 0 6 6 2 14 -9 13 -16 18 -17
35 -6 12 6 30 12 41 12 11 0 20 7 20 15 0 20 14 19 35 -1 11 -12 25 -14 50
-10 19 4 35 11 35 16 0 16 26 11 41 -6 11 -13 28 -15 91 -12 64 4 78 2 78 -10
0 -11 7 -13 33 -7 17 4 53 8 80 9 26 1 53 8 59 14 18 18 30 14 26 -9 -2 -12
-16 -31 -31 -43 -28 -21 -36 -21 -665 -24 l-637 -3 -17 22 c-31 37 -23 45 45
43 34 -1 83 -5 110 -9 27 -4 52 -3 60 2 19 15 75 24 82 12 4 -6 17 -2 33 10
24 18 57 19 85 4z m1402 -2347 c28 -2 65 -4 83 -5 19 0 31 -5 27 -11 -7 -11
-203 -14 -229 -4 -37 14 -4 35 44 27 14 -2 48 -6 75 -7z m-346 -2 c86 -9 76
-24 -16 -24 -84 0 -123 7 -123 21 0 11 53 12 139 3z m191 -14 c0 -11 -21 -11
-65 0 -27 7 -25 8 18 9 26 0 47 -3 47 -9z m350 0 c0 -13 -30 -13 -50 0 -11 7
-7 10 18 10 17 0 32 -4 32 -10z"/>
<path d="M30345 38050 c-3 -5 1 -10 10 -10 9 0 13 5 10 10 -3 6 -8 10 -10 10
-2 0 -7 -4 -10 -10z"/>
<path d="M44228 38163 c-10 -41 10 -2351 21 -2428 6 -44 16 -114 22 -155 48
-350 144 -615 324 -895 96 -149 156 -226 265 -339 338 -350 758 -537 1339
-596 432 -43 980 57 1415 259 50 23 94 40 98 39 5 -2 10 -489 11 -1083 l2
-1080 823 -3 822 -2 1 87 c1 210 1 2864 0 4461 -1 1549 -3 1743 -16 1748 -25
10 -150 -6 -134 -17 8 -5 24 -9 37 -9 12 0 22 -2 22 -5 0 -11 -98 -150 -117
-168 -18 -16 -60 -17 -639 -15 l-619 3 -46 62 c-77 104 -127 158 -136 150 -4
-5 -6 -579 -5 -1275 l4 -1267 -23 -24 c-32 -34 -212 -149 -286 -183 -176 -79
-369 -120 -568 -119 -169 1 -270 13 -375 46 -144 46 -231 97 -339 199 -136
129 -183 225 -231 474 -19 98 -20 147 -20 1122 0 710 -3 1021 -11 1025 -20 13
-79 -5 -79 -24 0 -9 -19 -40 -42 -67 -24 -28 -54 -65 -69 -84 l-25 -33 -608
-1 -608 -1 -20 25 c-67 84 -165 190 -174 190 -7 0 -14 -8 -16 -17z m3563
-2741 c-82 -99 -361 -240 -566 -287 -296 -68 -709 -38 -915 65 -30 15 -65 31
-78 35 -40 12 -172 105 -149 105 2 0 25 -7 51 -16 36 -12 50 -14 59 -5 9 9 16
6 28 -10 l16 -22 19 21 c23 28 38 28 67 0 17 -18 35 -23 82 -25 33 -1 70 -2
83 -3 12 0 28 0 35 0 6 1 62 -2 122 -5 63 -4 167 -2 245 5 74 7 149 12 166 11
17 0 75 11 130 25 54 15 146 36 204 48 58 12 115 28 127 34 12 7 37 12 56 12
19 0 40 7 47 15 14 17 80 21 80 5 0 -5 4 -10 8 -10 5 0 8 10 8 22 -1 19 7 24
49 34 28 6 54 7 59 3 5 -4 -10 -30 -33 -57z"/>
<path d="M58028 38171 c-26 -4 -49 -9 -51 -11 -14 -19 -25 -62 -20 -79 3 -11
-4 -40 -16 -64 l-21 -44 -218 -6 c-119 -4 -400 -7 -623 -7 -374 0 -407 1 -421
18 -36 42 -107 152 -98 152 5 0 10 -4 10 -8 0 -15 51 -37 58 -26 12 19 98 25
112 9 15 -18 42 -19 59 -2 10 10 16 8 31 -10 l18 -23 16 35 c15 31 20 34 44
29 23 -6 25 -4 14 7 -10 11 -58 14 -214 16 -110 1 -203 5 -206 8 -3 3 -16 5
-29 5 l-23 0 2 -3142 3 -3143 830 0 830 0 -4 1170 c-2 644 0 1181 3 1193 l7
22 997 -2 997 -3 5 -1190 5 -1190 840 0 840 0 2 3135 c1 1725 -1 3141 -5 3147
-5 8 -35 9 -100 5 -89 -7 -119 -21 -70 -33 21 -5 23 -10 21 -60 -2 -34 -10
-63 -21 -79 l-19 -25 -625 -3 -625 -2 -66 69 c-35 38 -73 83 -83 100 -19 32
-52 48 -79 37 -14 -5 -15 -135 -15 -1142 0 -626 -3 -1140 -7 -1143 -4 -3 -453
-4 -997 -1 l-990 5 -8 30 c-5 17 -8 525 -7 1131 2 605 -1 1106 -5 1112 -4 7
-13 11 -19 11 -7 -1 -33 -5 -59 -8z m1147 -2375 c34 -23 84 -30 91 -12 7 19
82 22 114 6 11 -5 29 -14 40 -20 34 -17 71 -12 77 10 6 21 53 30 53 10 0 -6
12 -9 28 -8 15 1 37 -4 49 -10 29 -16 43 -15 43 3 0 17 5 18 29 6 12 -7 32 -5
60 5 40 14 46 13 76 -5 20 -11 43 -17 55 -14 12 3 32 0 45 -7 26 -14 60 -6 49
11 -12 20 18 28 43 12 20 -13 28 -14 48 -3 14 8 34 10 52 5 15 -4 57 -8 91 -9
57 -1 66 -4 89 -30 16 -19 21 -32 14 -39 -11 -11 -2224 -14 -2260 -2 -29 9
-26 28 8 48 20 11 59 18 125 22 53 2 104 9 114 14 11 6 24 6 33 0 7 -5 25 -7
39 -4 14 3 43 -1 64 -10 24 -10 42 -13 49 -7 18 14 136 22 143 10 4 -5 19 -8
34 -4 18 3 33 0 41 -10 13 -16 44 -11 69 12 13 11 21 10 48 -6 41 -25 45 -25
37 1 -6 19 -4 21 16 15 13 -4 40 -9 59 -12 19 -3 45 -10 58 -16 16 -9 28 -8
46 2 14 7 32 10 41 6 9 -3 13 -2 10 4 -3 6 0 10 8 10 8 0 20 7 27 15 15 18 20
19 45 1z"/>
<path d="M62876 35040 c3 -1724 5 -3141 5 -3147 -1 -10 162 -13 784 -13 735 0
786 1 801 18 8 9 59 87 113 172 91 145 156 245 548 845 82 127 235 358 340
515 104 157 211 319 238 360 26 41 137 210 245 375 315 480 540 829 706 1097
16 27 32 48 37 48 4 0 8 -159 8 -352 1 -194 5 -965 8 -1713 l6 -1360 829 0
829 0 -2 3144 c-1 1730 -3 3145 -4 3145 -1 1 -356 0 -788 -2 l-786 -3 -75
-102 c-253 -343 -1567 -2321 -2113 -3180 -38 -60 -73 -111 -78 -114 -17 -11
-19 7 -3 54 14 43 15 212 11 1693 -3 905 -5 1647 -5 1650 0 3 -373 5 -830 5
l-830 0 6 -3135z m4034 3030 c0 -6 15 -19 33 -30 24 -15 50 -20 107 -20 41 0
81 4 89 9 9 6 25 5 40 -1 15 -6 114 -9 236 -9 116 1 226 1 245 0 19 -1 49 -1
65 0 17 1 53 3 82 4 28 1 55 5 59 10 11 10 72 9 79 -2 7 -12 126 -7 151 7 28
14 84 3 84 -17 -1 -43 12 -42 -606 -42 -324 0 -597 -3 -607 -7 -24 -10 -85
-92 -262 -352 -165 -243 -259 -379 -360 -525 -73 -106 -340 -503 -585 -870
-226 -339 -299 -436 -270 -359 6 15 8 34 5 41 -8 21 22 71 41 69 13 -1 21 11
28 40 7 25 25 54 45 73 19 18 31 37 28 45 -3 8 3 22 14 32 10 9 19 28 19 41 0
16 7 27 19 30 24 6 80 83 73 101 -2 7 5 16 16 19 20 5 41 40 57 92 7 25 64
103 95 133 11 10 16 25 13 38 -3 11 0 20 6 20 6 0 11 7 11 15 0 20 25 59 67
105 18 19 33 40 33 46 0 6 8 22 19 35 10 13 22 35 26 49 4 14 14 32 22 40 7 8
27 35 43 60 16 25 43 60 59 78 17 18 31 38 31 43 0 5 11 14 25 19 14 5 25 16
25 25 0 9 12 20 26 25 17 7 24 15 20 25 -3 8 1 27 9 42 8 15 15 36 15 45 0 10
11 25 25 34 14 9 38 38 52 63 15 25 44 68 65 95 21 27 38 56 38 65 0 9 6 25
14 36 7 11 16 32 20 47 3 15 20 36 36 48 17 12 30 27 30 35 0 7 11 20 25 29
14 9 25 25 25 36 0 24 34 83 76 134 18 21 36 52 40 70 9 47 43 96 65 96 10 0
19 -5 19 -10z m-2566 -77 c-15 -11 -131 -13 -604 -13 -322 1 -593 -2 -603 -5
-23 -9 -75 13 -88 37 -15 28 -9 29 38 8 34 -15 59 -18 145 -14 57 3 184 7 283
9 99 2 295 6 435 9 140 2 278 5 305 5 28 0 62 4 75 9 21 8 26 6 28 -11 2 -12
-4 -27 -14 -34z m1126 -2190 c0 -8 -220 -334 -292 -434 -10 -13 -48 -69 -85
-124 -80 -119 -102 -148 -230 -305 -54 -66 -108 -135 -120 -153 -44 -64 -118
-157 -125 -157 -10 0 33 73 49 83 7 4 13 14 13 21 0 6 15 27 34 45 18 18 46
57 62 87 16 30 39 61 51 70 13 8 23 19 23 25 0 6 18 36 40 66 22 31 40 64 40
73 0 10 18 36 40 59 22 22 40 45 40 49 0 4 6 14 12 20 7 7 13 20 13 30 0 9 10
21 22 27 24 10 48 52 58 98 4 19 11 27 22 25 11 -2 19 7 25 30 5 17 13 32 19
32 5 0 15 12 21 28 9 21 12 23 15 9 6 -22 23 -12 23 14 0 17 40 82 61 99 3 3
14 19 23 37 9 18 32 44 51 59 19 14 35 33 35 42 0 20 29 52 47 52 7 0 13 -3
13 -7z"/>
<path d="M71495 38173 c-676 -45 -1230 -238 -1638 -571 -325 -266 -569 -690
-657 -1142 -42 -214 -53 -592 -25 -830 52 -438 194 -819 412 -1103 122 -159
333 -346 527 -468 47 -30 86 -60 86 -66 0 -14 -100 -183 -315 -533 -170 -276
-945 -1568 -945 -1575 0 -3 423 -5 939 -5 l939 0 48 88 c154 284 490 876 744
1312 40 69 104 179 142 245 39 66 74 126 80 133 8 9 103 12 414 12 378 0 404
-1 404 -17 1 -10 2 -412 3 -893 l2 -875 821 -3 c711 -2 823 0 827 12 3 8 5
1425 4 3148 l-2 3133 -1380 1 c-759 0 -1402 -1 -1430 -3z m-220 -192 c-6 -5
-84 -25 -174 -45 -388 -87 -731 -236 -998 -434 -112 -83 -289 -261 -376 -377
-78 -105 -173 -276 -217 -392 -18 -46 -36 -86 -42 -89 -13 -9 -5 104 10 132 6
11 13 38 15 60 6 48 113 259 150 296 15 15 27 31 27 36 0 5 8 12 18 14 15 4
72 87 72 105 0 2 -11 8 -25 13 l-25 10 40 40 c22 22 45 40 52 40 19 0 48 31
48 52 0 10 6 18 14 18 8 0 28 14 46 30 18 17 36 30 40 30 20 0 70 54 70 74 0
16 10 27 35 39 19 9 35 21 35 27 0 8 34 34 99 75 9 6 27 18 40 28 13 9 32 17
41 17 10 0 23 7 30 15 7 8 20 15 29 15 9 0 30 7 46 16 52 27 172 63 300 90 44
9 98 21 120 27 22 6 51 12 65 13 27 2 153 24 156 27 2 1 62 3 135 5 78 1 129
-1 124 -7z m1383 -2114 l2 -769 -517 5 c-285 3 -553 10 -597 16 -399 54 -634
246 -687 561 -15 89 -12 277 6 365 9 44 36 122 61 174 37 79 57 107 126 176
106 104 218 163 384 200 159 36 286 42 779 41 l440 -1 3 -768z m-2210 -1939
c-12 -24 -29 -54 -39 -68 -22 -33 -205 -333 -237 -390 -14 -25 -49 -85 -79
-133 -29 -49 -53 -90 -53 -92 0 -3 -21 -39 -47 -82 -26 -43 -78 -130 -116
-193 -122 -201 -209 -343 -262 -425 -29 -44 -85 -133 -126 -199 -72 -118 -134
-195 -145 -183 -4 3 10 29 30 57 20 27 36 54 36 58 0 4 27 49 60 100 33 51 60
96 60 100 0 5 13 26 66 106 34 51 112 179 155 256 23 41 56 95 73 120 18 25
51 79 74 120 43 76 70 119 197 315 40 61 78 122 86 137 64 120 129 230 175
295 30 43 64 93 75 111 30 47 42 39 17 -10z"/>
<path d="M35225 38160 c3 -5 18 -10 33 -10 21 0 24 2 12 10 -20 13 -53 13 -45
0z"/>
<path d="M61400 38160 c-11 -7 -6 -10 20 -10 26 0 31 3 20 10 -8 5 -17 10 -20
10 -3 0 -12 -5 -20 -10z"/>
<path d="M56983 38151 c-15 -11 -36 -61 -29 -68 3 -4 19 1 35 10 20 11 31 13
39 5 13 -13 32 -2 32 18 0 8 5 14 10 14 6 0 10 6 10 13 0 12 -81 19 -97 8z"/>
<path d="M57175 38150 c-4 -7 6 -11 27 -11 78 0 109 -5 118 -19 8 -13 11 -12
24 5 9 11 16 23 16 26 0 11 -178 10 -185 -1z"/>
<path d="M57440 38151 l-25 -7 30 -11 c22 -7 40 -7 65 2 33 11 34 12 10 18
-30 8 -46 7 -80 -2z"/>
<path d="M57565 38152 c-13 -13 -2 -17 43 -16 99 3 112 4 112 15 0 10 -144 11
-155 1z"/>
<path d="M57740 38151 c0 -17 105 -23 141 -7 33 14 33 14 -53 15 -49 1 -88 -3
-88 -8z"/>
<path d="M60348 38153 c7 -3 16 -2 19 1 4 3 -2 6 -13 5 -11 0 -14 -3 -6 -6z"/>
<path d="M60438 38153 c6 -2 18 -2 25 0 6 3 1 5 -13 5 -14 0 -19 -2 -12 -5z"/>
<path d="M61508 38153 c12 -2 30 -2 40 0 9 3 -1 5 -23 4 -22 0 -30 -2 -17 -4z"/>
<path d="M56667 38063 c-12 -11 -8 -23 8 -23 8 0 15 7 15 15 0 16 -12 20 -23
8z"/>
</g>
</svg>
